# xmcd
#
# Track frame offsets:
#	150
#	15052
#	29150
#	41375
#	55587
#	68787
#	83525
#	97187
#
# Disc length: 1509
#
# Revision: 2
# Processed by: cddbd v1.5.1PL0 Copyright (c) Steve Scherf et al.
# Submitted via: CDex 1.50
# Normalized: r0:DSETVAR1,TSWAP
#
DISCID=5605e308
DTITLE=Various Artist - Reader's Digest - Great Original Country Hits Of The '80s
DYEAR=1997
DGENRE=Country
TTITLE0=Alabama - Love In The First Degree
TTITLE1=Randy Travis - On The Other Hand
TTITLE2=The Judds - Rockin' With The Rhythm Of The Rain
TTITLE3=George Strait - Ocean Front Property
TTITLE4=Dolly Parton - I Will Always Love You
TTITLE5=Ronnie Milsap with The Shelly Kurland Strings - (There's) No Gettin' Over Me
TTITLE6=Merle Haggard - Big City
TTITLE7=Keith Whitley - Don't Close Your Eyes
EXTD=YEAR: 1997
EXTT0=
EXTT1=
EXTT2=
EXTT3=
EXTT4=
EXTT5=
EXTT6=
EXTT7=
PLAYORDER=
